{
  "accessors": [
    {
      "bufferView": 2,
      "componentType": 5126,
      "count": 1610,
      "max": [
        268.51318359375,
        26.825233459472656,
        229.90678405761719
      ],
      "min": [
        0,
        0,
        174.78256225585938
      ],
      "type": "VEC3"
    },
    {
      "bufferView": 2,
      "byteOffset": 19320,
      "componentType": 5126,
      "count": 1610,
      "max": [
        1,
        0.99999922513961792,
        1
      ],
      "min": [
        -1,
        -0.9999663233757019,
        -0.99997222423553467
      ],
      "type": "VEC3"
    },
    {
      "bufferView": 3,
      "componentType": 5126,
      "count": 1610,
      "max": [
        0.99984431266784668,
        1,
        0.99999898672103882,
        1
      ],
      "min": [
        -0.99969202280044556,
        -0.99994665384292603,
        -1,
        -1
      ],
      "type": "VEC4"
    },
    {
      "bufferView": 1,
      "componentType": 5126,
      "count": 1610,
      "max": [
        0.99707001447677612,
        0.99194300174713135
      ],
      "min": [
        0.0053710001520812511,
        0.0085450001060962677
      ],
      "type": "VEC2"
    },
    {
      "bufferView": 0,
      "componentType": 5125,
      "count": 4032,
      "max": [
        1609
      ],
      "min": [
        0
      ],
      "type": "SCALAR"
    },
    {
      "bufferView": 2,
      "byteOffset": 38640,
      "componentType": 5126,
      "count": 2006,
      "max": [
        260.55282592773438,
        24.083353042602539,
        224.46815490722656
      ],
      "min": [
        7.9603347778320312,
        0.27461051940917969,
        0
      ],
      "type": "VEC3"
    },
    {
      "bufferView": 2,
      "byteOffset": 62712,
      "componentType": 5126,
      "count": 2006,
      "max": [
        1,
        1,
        0.99827349185943604
      ],
      "min": [
        -1,
        -1,
        -1
      ],
      "type": "VEC3"
    },
    {
      "bufferView": 3,
      "byteOffset": 25760,
      "componentType": 5126,
      "count": 2006,
      "max": [
        1,
        1,
        0.99998629093170166,
        1
      ],
      "min": [
        -1,
        -1,
        -1,
        -1
      ],
      "type": "VEC4"
    },
    {
      "bufferView": 1,
      "byteOffset": 12880,
      "componentType": 5126,
      "count": 2006,
      "max": [
        0.99707001447677612,
        0.9743649959564209
      ],
      "min": [
        0.00048799999058246613,
        0.0041499999351799488
      ],
      "type": "VEC2"
    },
    {
      "bufferView": 0,
      "byteOffset": 16128,
      "componentType": 5125,
      "count": 4878,
      "max": [
        2005
      ],
      "min": [
        0
      ],
      "type": "SCALAR"
    }
  ],
  "asset": {
    "extras": {
      "author": "peedr0o0 (https://sketchfab.com/peedr0o0)",
      "license": "CC-BY-4.0 (http://creativecommons.org/licenses/by/4.0/)",
      "source": "https://sketchfab.com/models/1681643ca3ff47d4a0d680fa0fe645cc",
      "title": "Kingdom Hearts - Jack Skellington"
    },
    "generator": "Sketchfab-3.18.5",
    "version": "2.0"
  },
  "bufferViews": [
    {
      "buffer": 0,
      "byteLength": 35640,
      "byteOffset": 0,
      "name": "floatBufferViews",
      "target": 34963
    },
    {
      "buffer": 0,
      "byteLength": 28928,
      "byteOffset": 35640,
      "byteStride": 8,
      "name": "floatBufferViews",
      "target": 34962
    },
    {
      "buffer": 0,
      "byteLength": 86784,
      "byteOffset": 64568,
      "byteStride": 12,
      "name": "floatBufferViews",
      "target": 34962
    },
    {
      "buffer": 0,
      "byteLength": 57856,
      "byteOffset": 151352,
      "byteStride": 16,
      "name": "floatBufferViews",
      "target": 34962
    }
  ],
  "buffers": [
    {
      "byteLength": 209208,
      "uri": "scene.bin"
    }
  ],
  "extensionsUsed": [
    "KHR_materials_unlit"
  ],
  "images": [
    {
      "uri": "textures/default_material_texture000.png_baseColor.png"
    },
    {
      "uri": "textures/default_material_texture001.png_baseColor.png"
    }
  ],
  "materials": [
    {
      "doubleSided": true,
      "emissiveFactor": [
        0,
        0,
        0
      ],
      "extensions": {
        "KHR_materials_unlit": {}
      },
      "name": "default_material_texture000.png",
      "pbrMetallicRoughness": {
        "baseColorFactor": [
          1,
          1,
          1,
          1
        ],
        "baseColorTexture": {
          "index": 0,
          "texCoord": 0
        },
        "metallicFactor": 0,
        "roughnessFactor": 1
      }
    },
    {
      "doubleSided": true,
      "emissiveFactor": [
        0,
        0,
        0
      ],
      "extensions": {
        "KHR_materials_unlit": {}
      },
      "name": "default_material_texture001.png",
      "pbrMetallicRoughness": {
        "baseColorFactor": [
          1,
          1,
          1,
          1
        ],
        "baseColorTexture": {
          "index": 1,
          "texCoord": 0
        },
        "metallicFactor": 0,
        "roughnessFactor": 1
      }
    }
  ],
  "meshes": [
    {
      "primitives": [
        {
          "attributes": {
            "NORMAL": 1,
            "POSITION": 0,
            "TANGENT": 2,
            "TEXCOORD_0": 3
          },
          "indices": 4,
          "material": 0,
          "mode": 4
        }
      ]
    },
    {
      "primitives": [
        {
          "attributes": {
            "NORMAL": 6,
            "POSITION": 5,
            "TANGENT": 7,
            "TEXCOORD_0": 8
          },
          "indices": 9,
          "material": 1,
          "mode": 4
        }
      ]
    }
  ],
  "nodes": [
    {
      "children": [
        1
      ],
      "name": "RootNode (gltf orientation matrix)",
      "rotation": [
        -0.70710678118654746,
        -0,
        -0,
        0.70710678118654757
      ]
    },
    {
      "children": [
        2
      ],
      "name": "RootNode (model correction matrix)"
    },
    {
      "children": [
        3
      ],
      "matrix": [
        1,
        0,
        0,
        0,
        0,
        1,
        0,
        0,
        0,
        0,
        1,
        0,
        -134.25657653808594,
        -15.81812858581543,
        -3.7999998312443495e-05,
        1
      ],
      "name": "Jack_Skellington.obj.cleaner.gles"
    },
    {
      "children": [
        4,
        5
      ],
      "name": ""
    },
    {
      "mesh": 0,
      "name": ""
    },
    {
      "mesh": 1,
      "name": ""
    }
  ],
  "samplers": [
    {
      "magFilter": 9729,
      "minFilter": 9987,
      "wrapS": 10497,
      "wrapT": 10497
    }
  ],
  "scene": 0,
  "scenes": [
    {
      "name": "OSG_Scene",
      "nodes": [
        0
      ]
    }
  ],
  "textures": [
    {
      "sampler": 0,
      "source": 0
    },
    {
      "sampler": 0,
      "source": 1
    }
  ]
}

